<?xml version="1.0" encoding="UTF-8" standalone="no"?>
<!-- Created with Inkscape (http://www.inkscape.org/) -->

<svg
   xmlns:dc="http://purl.org/dc/elements/1.1/"
   xmlns:cc="http://creativecommons.org/ns#"
   xmlns:rdf="http://www.w3.org/1999/02/22-rdf-syntax-ns#"
   xmlns:svg="http://www.w3.org/2000/svg"
   xmlns="http://www.w3.org/2000/svg"
   xmlns:sodipodi="http://sodipodi.sourceforge.net/DTD/sodipodi-0.dtd"
   xmlns:inkscape="http://www.inkscape.org/namespaces/inkscape"
   version="1.1"
   id="svg2"
   xml:space="preserve"
   width="320"
   height="320"
   viewBox="0 0 320 320"
   sodipodi:docname="eemis-logo.svg"
   inkscape:version="0.92.3 (2405546, 2018-03-11)"
   inkscape:export-filename="eemis-logo.png"
   inkscape:export-xdpi="99"
   inkscape:export-ydpi="99"><metadata
     id="metadata8"><rdf:RDF><cc:Work
         rdf:about=""><dc:format>image/svg+xml</dc:format><dc:type
           rdf:resource="http://purl.org/dc/dcmitype/StillImage" /><dc:title></dc:title></cc:Work></rdf:RDF></metadata><defs
     id="defs6" /><sodipodi:namedview
     pagecolor="#ffffff"
     bordercolor="#666666"
     borderopacity="1"
     objecttolerance="10"
     gridtolerance="10"
     guidetolerance="10"
     inkscape:pageopacity="0"
     inkscape:pageshadow="2"
     inkscape:window-width="1920"
     inkscape:window-height="1031"
     id="namedview4"
     showgrid="false"
     inkscape:zoom="0.65397889"
     inkscape:cx="201.84138"
     inkscape:cy="128.19828"
     inkscape:window-x="0"
     inkscape:window-y="25"
     inkscape:window-maximized="1"
     inkscape:current-layer="g10"
     fit-margin-top="0"
     fit-margin-left="0"
     fit-margin-right="0"
     fit-margin-bottom="0"><inkscape:grid
       type="xygrid"
       id="grid941"
       originx="0"
       originy="439.99999" /></sodipodi:namedview><g
     id="g10"
     inkscape:groupmode="layer"
     inkscape:label="ink_ext_XXXXXX"
     transform="matrix(1.3333333,0,0,-1.3333333,0,-120)"><rect
       style="opacity:1;fill:#ffe000;fill-opacity:1;stroke:none;stroke-width:0.75118107;stroke-linejoin:miter;stroke-miterlimit:4;stroke-dasharray:none;stroke-dashoffset:0;stroke-opacity:1"
       id="rect943"
       width="240"
       height="240"
       x="0"
       y="90"
       transform="scale(1,-1)" /><path
       inkscape:connector-curvature="0"
       id="path58"
       style="fill:#231f20;fill-opacity:1;fill-rule:nonzero;stroke:none;stroke-width:0.1"
       d="m 114.63966,-209.63965 c 0,6.3129 -5.1153,11.4297 -11.4278,11.4297 -6.310497,0 -11.427697,-5.1168 -11.427697,-11.4297 0,-6.3097 5.1172,-11.4269 11.427697,-11.4269 6.3125,0 11.4278,5.1172 11.4278,11.4269 z m -32.158997,31.9161 c -6.31094,0 -11.42813,-5.1165 -11.42813,-11.4278 0,-6.3113 5.11719,-11.4273 11.42813,-11.4273 6.3113,0 11.4285,5.116 11.4285,11.4273 0,6.3113 -5.1172,11.4278 -11.4285,11.4278 z m 14.1453,-5.2754 c 0,-6.3118 5.117197,-11.4278 11.428497,-11.4278 6.3125,0 11.4281,5.116 11.4281,11.4278 0,6.3114 -5.1156,11.4274 -11.4281,11.4274 -6.3113,0 -11.428497,-5.116 -11.428497,-11.4274 z m 3.3555,37.6464 c -6.3106,0 -11.4278,-5.117 -11.4278,-11.429 0,-6.311 5.1172,-11.427 11.4278,-11.427 6.312497,0 11.428897,5.116 11.428897,11.427 0,6.312 -5.1164,11.429 -11.428897,11.429 z m 24.488297,-1.073 c 6.3117,0 11.4265,5.117 11.4265,11.429 0,6.311 -5.1148,11.427 -11.4265,11.427 -6.3125,0 -11.4278,-5.116 -11.4278,-11.427 0,-6.312 5.1153,-11.429 11.4278,-11.429 z m 21.5058,14.589 c 6.3125,0 11.4278,5.116 11.4278,11.427 0,6.312 -5.1153,11.428 -11.4278,11.428 -6.3105,0 -11.4277,-5.116 -11.4277,-11.428 0,-6.311 5.1172,-11.427 11.4277,-11.427 z m -57.808597,-36.03 c 0,3.694 -2.9941,6.689 -6.6894,6.689 -3.69456,0 -6.6887,-2.995 -6.6887,-6.689 0,-3.695 2.99414,-6.69 6.6887,-6.69 3.6953,0 6.6894,2.995 6.6894,6.69 z m 13.421897,37.049 c 3.6934,0 6.6914,2.995 6.6914,6.69 0,3.696 -2.998,6.691 -6.6914,6.691 -3.694097,0 -6.689497,-2.995 -6.689497,-6.691 0,-3.695 2.9954,-6.69 6.689497,-6.69 z m 23.2129,12.127 c 3.6933,0 6.6894,2.995 6.6894,6.69 0,3.694 -2.9961,6.69 -6.6894,6.69 -3.6953,0 -6.6902,-2.996 -6.6902,-6.69 0,-3.695 2.9949,-6.69 6.6902,-6.69 z m 58.2618,-55.453 c -3.694,0 -6.688,-2.995 -6.688,-6.6886 0,-3.6961 2.994,-6.6891 6.688,-6.6891 3.695,0 6.691,2.993 6.691,6.6891 0,3.6936 -2.996,6.6886 -6.691,6.6886 z m -31.2364,35.205 c 0,-6.31 5.1172,-11.428 11.4297,-11.428 6.3107,0 11.4267,5.118 11.4267,11.428 0,6.311 -5.116,11.429 -11.4267,11.429 -6.3125,0 -11.4297,-5.118 -11.4297,-11.429 z m 0.7734,-16.48 c 0,6.312 -5.1152,11.428 -11.4265,11.428 -6.3125,0 -11.429,-5.116 -11.429,-11.428 0,-6.311 5.1165,-11.428 11.429,-11.428 6.3113,0 11.4265,5.117 11.4265,11.428 z m 14,-22.731 c 6.311,0 11.428,5.116 11.428,11.427 0,6.311 -5.117,11.429 -11.428,11.429 -6.3113,0 -11.4277,-5.118 -11.4277,-11.429 0,-6.311 5.1164,-11.427 11.4277,-11.427 z m -21.1902,-21.476 c -6.3117,0 -11.4278,-5.1172 -11.4278,-11.4281 0,-6.3117 5.1161,-11.4289 11.4278,-11.4289 6.3113,0 11.4285,5.1172 11.4285,11.4289 0,6.3109 -5.1172,11.4281 -11.4285,11.4281 z m -0.8332,5.1207 c 6.3125,0 11.4277,5.118 11.4277,11.4297 0,6.3116 -5.1152,11.4266 -11.4277,11.4266 -6.3125,0 -11.4278,-5.115 -11.4278,-11.4266 0,-6.3117 5.1153,-11.4297 11.4278,-11.4297 z m 23.9844,8.543 c -6.3118,0 -11.4266,-5.1164 -11.4266,-11.427 0,-6.3109 5.1148,-11.4277 11.4266,-11.4277 6.312,0 11.428,5.1168 11.428,11.4277 0,6.3106 -5.116,11.427 -11.428,11.427 z m -76.908197,51.2443 c -0.293,6.051 -5.2903,10.868 -11.4141,10.868 -6.31251,0 -11.4297,-5.116 -11.4297,-11.427 0,-6.311 5.11719,-11.428 11.4297,-11.428 5.7129,0 10.4453,4.192 11.2922,9.667 2.9722,-0.353 7.407,-1.336 11.787897,-4.04 7.4179,-4.577 27.9785,-18.067 14.248,-80.114 -8.164,-36.9039 -10.3418,-44.2199 -10.3418,-44.2199 h 27.9473 c 0,0 -4.5488,22.1961 -5.0117,56.4379 1.7441,61.959 -17.461,71.377 -38.507797,74.256" /><flowRoot
       xml:space="preserve"
       id="flowRoot929"
       style="font-style:normal;font-variant:normal;font-weight:normal;font-stretch:normal;font-size:96px;line-height:125%;font-family:FreeSerif;-inkscape-font-specification:FreeSerif;letter-spacing:0px;word-spacing:0px;fill:#000000;fill-opacity:1;stroke:none;stroke-width:1px;stroke-linecap:butt;stroke-linejoin:miter;stroke-opacity:1"
       transform="matrix(0.75000002,0,0,-0.75000002,0,174.52)"><flowRegion
         id="flowRegion931"><rect
           id="rect933"
           width="281.35464"
           height="116.2117"
           x="3.0582027"
           y="462.05853" /></flowRegion><flowPara
         id="flowPara935"
         style="font-size:64px">EEMiS</flowPara></flowRoot><text
       xml:space="preserve"
       style="font-style:normal;font-variant:normal;font-weight:normal;font-stretch:normal;font-size:48px;line-height:125%;font-family:FreeSerif;-inkscape-font-specification:FreeSerif;letter-spacing:0px;word-spacing:0px;fill:#000000;fill-opacity:1;stroke:none;stroke-width:0.75px;stroke-linecap:butt;stroke-linejoin:miter;stroke-opacity:1"
       x="60.379189"
       y="304.60336"
       id="text939"
       transform="scale(1,-1)"><tspan
         sodipodi:role="line"
         id="tspan937"
         x="60.379189"
         y="304.60336"
         style="stroke-width:0.75px">EEMiS</tspan></text>
</g></svg>